<svg width="160" height="39" viewBox="0 0 160 39" fill="none" xmlns="http://www.w3.org/2000/svg">
<g id="biso-logo">
<g id="Group">
<g id="Group_2">
<path id="Vector" d="M155.489 26.1808H160V22.862H147.23V26.1808H151.741V37.9113H155.489V26.1808ZM132.661 32.5156C132.661 36.7967 135.702 38.1658 139.146 38.1658C141.073 38.1658 144.012 37.7859 145.304 37.381V22.8639H141.528V34.822C140.843 34.9242 140.186 35.0245 139.146 35.0245C137.449 35.0245 136.435 34.1625 136.435 31.6806V22.8639H132.659V32.5175L132.661 32.5156ZM126.986 30.3867C126.986 33.0209 125.339 34.7699 123.032 34.7699C120.726 34.7699 119.079 33.0228 119.079 30.3867C119.079 27.7505 120.751 26.0034 123.032 26.0034C125.314 26.0034 126.986 27.7524 126.986 30.3867ZM115.205 30.3867C115.205 34.9724 118.676 38.1639 123.034 38.1639C127.393 38.1639 130.889 34.9724 130.889 30.3867C130.889 25.8009 127.393 22.6094 123.034 22.6094C118.676 22.6094 115.205 25.8009 115.205 30.3867ZM101.565 30.4618L106.404 37.9113H110.837L105.669 30.1591L110.507 22.862H106.149L101.563 30.4618H101.565ZM97.7143 37.9113H101.49V22.862H97.7143V37.9113ZM89.937 31.9834H86.086L88.0375 26.6378L89.937 31.9834ZM91.0266 35.0495L92.0409 37.9132H96.1696L90.3169 22.8639H85.7813L79.9286 37.9132H83.9069L84.9463 35.0495H91.0266ZM72.1513 34.5944V32.0104H77.8266V28.7668H72.1513V26.1827H78.3839V22.8639H68.4276V37.9132H78.5613V34.5944H72.1513ZM59.1288 26.0554C59.4335 26.0053 59.9657 25.9802 60.2685 25.9802C61.6357 25.9802 62.8525 26.5626 62.8525 28.1593C62.8525 29.7561 61.8131 30.3384 60.2685 30.3384C59.8384 30.3384 59.3062 30.3134 59.1288 30.2883V26.0574V26.0554ZM59.1288 33.5049C59.4335 33.53 60.0158 33.555 60.4709 33.555C63.6374 33.555 66.6534 32.0856 66.6534 28.1593C66.6534 24.2331 63.9941 22.6113 60.2685 22.6113C58.5965 22.6113 56.6199 22.7887 55.3529 22.9912V37.9132H59.1288V33.5049ZM43.5819 37.1033C44.5693 37.7107 46.0908 38.1678 47.7627 38.1678C50.9542 38.1678 53.5653 36.7485 53.5653 33.4798C53.5653 30.971 52.5008 29.5266 49.4096 28.7166C47.8129 28.3117 46.9528 28.007 46.9528 27.0447C46.9528 26.3351 47.5101 25.8279 48.6498 25.8279C50.1944 25.8279 51.4884 26.4353 52.6532 27.3995V23.7008C51.5385 23.0413 50.2967 22.6113 48.4974 22.6113C45.5335 22.6113 43.2792 24.3083 43.2792 27.2723C43.2792 29.7811 44.4439 31.1985 47.5602 31.9853C49.0798 32.3652 49.8647 32.6949 49.8647 33.6071C49.8647 34.6195 48.8773 34.9493 47.7357 34.9493C46.0387 34.9493 44.6946 34.2396 43.58 33.4046V37.1033H43.5819Z" fill="white"/>
<path id="Vector_2" d="M139.175 18.9223H142.422V9.85491C143.099 9.63893 143.911 9.50201 144.696 9.50201C146.104 9.50201 146.835 10.2059 146.835 11.5596V18.9204H150.109V11.3417C150.109 7.74138 148.08 6.57854 144.941 6.57854C143.128 6.57854 140.882 6.98544 139.177 7.63338V18.9184L139.175 18.9223ZM135.058 5.11874C136.113 5.11874 137.008 4.25288 137.008 3.19804C137.008 2.08728 136.115 1.22142 135.058 1.22142C134.001 1.22142 133.11 2.08728 133.11 3.19804C133.11 4.30881 133.976 5.11874 135.058 5.11874ZM136.682 6.85045H133.434V18.9204H136.682V6.85045ZM119.349 11.8296C119.646 10.2599 120.566 9.25903 121.974 9.25903C123.516 9.25903 124.22 10.3409 124.247 11.8296H119.349ZM127.279 13.7792V12.2635C127.279 9.07005 125.817 6.58047 122.055 6.58047C118.672 6.58047 116.156 9.04305 116.156 13.0214C116.156 16.7837 118.618 19.1923 122.543 19.1923C124.166 19.1923 125.79 18.8683 126.901 18.0815V15.322C125.709 16.0258 124.492 16.4038 122.868 16.4038C121.245 16.4038 119.567 15.5379 119.322 13.8332V13.7792H127.279ZM103.056 18.9204H106.303V9.85298C106.953 9.61 107.792 9.50008 108.577 9.50008C109.985 9.50008 110.716 10.204 110.716 11.5577V18.9184H113.99V11.3398C113.99 7.76644 111.905 6.57661 109.281 6.57661C107.981 6.57661 106.872 6.87552 106.303 7.0915V0.515625H103.056V18.9184V18.9204ZM91.6899 9.55601H93.5026V15.266C93.5026 18.1895 95.3963 19.1903 97.4809 19.1903C98.6977 19.1903 99.7275 18.9744 100.593 18.5135V15.536C99.8895 15.9699 99.1856 16.2129 98.3738 16.2129C97.3999 16.2129 96.75 15.779 96.75 14.4002V9.55601H100.186V6.85045H96.75V3.87299H93.5026V6.85045H91.6899V9.55601ZM86.8457 16.6468C86.4138 16.7548 85.8449 16.7817 85.492 16.7817C84.1922 16.7817 83.3534 16.3209 83.3534 15.293C83.3534 14.2652 84.2463 13.8313 85.762 13.8313H86.8438V16.6468H86.8457ZM86.8457 11.7486H85.519C82.1366 11.7486 80.106 12.9404 80.106 15.4569C80.106 18.2454 82.4605 19.1653 85.519 19.1653C87.0617 19.1653 88.9014 18.9493 90.0662 18.6774V10.8828C90.0662 7.66231 88.0086 6.57854 85.249 6.57854C83.7063 6.57854 82.2716 6.93144 81.1897 7.55239V10.3679C82.1366 9.79898 83.2473 9.36702 84.6801 9.36702C85.8719 9.36702 86.8457 9.85491 86.8457 11.0177V11.7486ZM70.1746 11.8296C70.4716 10.2599 71.3915 9.25903 72.7992 9.25903C74.3419 9.25903 75.0458 10.3409 75.0728 11.8296H70.1746ZM78.1043 13.7792V12.2635C78.1043 9.07005 76.6425 6.58047 72.8802 6.58047C69.4978 6.58047 66.9793 9.04305 66.9793 13.0214C66.9793 16.7837 69.4418 19.1923 73.3662 19.1923C74.9899 19.1923 76.6136 18.8683 77.7244 18.0815V15.322C76.5345 16.0258 75.3158 16.4038 73.6921 16.4038C72.0683 16.4038 70.3906 15.5379 70.1457 13.8332V13.7792H78.1023H78.1043ZM61.7031 9.9899C62.218 9.82791 62.758 9.71799 63.3539 9.71799C64.1387 9.71799 65.0046 9.79899 65.7894 10.1249V6.98543C64.8966 6.74246 64.2197 6.66146 63.2729 6.66146C61.5142 6.66146 59.7824 7.06643 58.4557 7.7703V18.9204H61.7031V9.9899ZM47.1707 10.1249C47.6585 9.80092 48.3875 9.50201 49.3633 9.50201C51.122 9.50201 52.5297 10.7478 52.5297 12.6685C52.5297 15.266 50.906 16.4038 48.8484 16.4038C48.2525 16.4038 47.6296 16.2958 47.1707 16.1338V10.1249ZM43.9232 18.3245C45.14 18.7854 46.7098 19.1903 48.7134 19.1903C53.3956 19.1903 55.8581 16.5098 55.8581 12.5855C55.8581 8.8772 53.3146 6.57661 49.8762 6.57661C48.8484 6.57661 47.7646 6.81959 47.1707 7.17249V0.515625H43.9232V18.3245Z" fill="#28AFB5"/>
</g>
<path id="Vector_3" d="M17.4309 0.575865C14.7195 0.774491 12.1663 1.54393 9.89467 2.7704L3.13752 0.170898L4.97337 6.59829C1.88598 9.95179 0 14.4257 0 19.3431C0 29.2687 7.68471 37.395 17.429 38.1104V0.575865H17.4309Z" fill="#28AFB5"/>
<path id="Vector_4" d="M37.6483 19.343C37.6483 9.41744 29.9636 1.29112 20.2194 0.575684V38.1102C22.9307 37.9116 25.4839 37.1422 27.7556 35.9157L34.5127 38.5152L32.6769 32.0878C35.7643 28.7343 37.6502 24.2604 37.6502 19.343H37.6483Z" fill="white"/>
</g>
</g>
</svg>
